%TF.GenerationSoftware,KiCad,Pcbnew,8.0.4*%
%TF.CreationDate,2024-08-13T18:30:55-04:00*%
%TF.ProjectId,op amp circuit,6f702061-6d70-4206-9369-72637569742e,rev?*%
%TF.SameCoordinates,Original*%
%TF.FileFunction,Copper,L1,Top*%
%TF.FilePolarity,Positive*%
%FSLAX46Y46*%
G04 Gerber Fmt 4.6, Leading zero omitted, Abs format (unit mm)*
G04 Created by KiCad (PCBNEW 8.0.4) date 2024-08-13 18:30:55*
%MOMM*%
%LPD*%
G01*
G04 APERTURE LIST*
G04 Aperture macros list*
%AMRoundRect*
0 Rectangle with rounded corners*
0 $1 Rounding radius*
0 $2 $3 $4 $5 $6 $7 $8 $9 X,Y pos of 4 corners*
0 Add a 4 corners polygon primitive as box body*
4,1,4,$2,$3,$4,$5,$6,$7,$8,$9,$2,$3,0*
0 Add four circle primitives for the rounded corners*
1,1,$1+$1,$2,$3*
1,1,$1+$1,$4,$5*
1,1,$1+$1,$6,$7*
1,1,$1+$1,$8,$9*
0 Add four rect primitives between the rounded corners*
20,1,$1+$1,$2,$3,$4,$5,0*
20,1,$1+$1,$4,$5,$6,$7,0*
20,1,$1+$1,$6,$7,$8,$9,0*
20,1,$1+$1,$8,$9,$2,$3,0*%
G04 Aperture macros list end*
%TA.AperFunction,SMDPad,CuDef*%
%ADD10RoundRect,0.200000X0.275000X-0.200000X0.275000X0.200000X-0.275000X0.200000X-0.275000X-0.200000X0*%
%TD*%
%TA.AperFunction,ComponentPad*%
%ADD11C,2.000000*%
%TD*%
%TA.AperFunction,SMDPad,CuDef*%
%ADD12RoundRect,0.225000X-0.225000X-0.250000X0.225000X-0.250000X0.225000X0.250000X-0.225000X0.250000X0*%
%TD*%
%TA.AperFunction,SMDPad,CuDef*%
%ADD13RoundRect,0.150000X-0.825000X-0.150000X0.825000X-0.150000X0.825000X0.150000X-0.825000X0.150000X0*%
%TD*%
%TA.AperFunction,HeatsinkPad*%
%ADD14R,2.290000X3.000000*%
%TD*%
%TA.AperFunction,SMDPad,CuDef*%
%ADD15RoundRect,0.200000X-0.200000X-0.275000X0.200000X-0.275000X0.200000X0.275000X-0.200000X0.275000X0*%
%TD*%
%TA.AperFunction,SMDPad,CuDef*%
%ADD16RoundRect,0.225000X0.225000X0.250000X-0.225000X0.250000X-0.225000X-0.250000X0.225000X-0.250000X0*%
%TD*%
%TA.AperFunction,ViaPad*%
%ADD17C,0.600000*%
%TD*%
%TA.AperFunction,Conductor*%
%ADD18C,0.200000*%
%TD*%
G04 APERTURE END LIST*
D10*
%TO.P,R1,1*%
%TO.N,Net-(U1--)*%
X116500000Y-121150000D03*
%TO.P,R1,2*%
%TO.N,GNDPWR*%
X116500000Y-119500000D03*
%TD*%
D11*
%TO.P,TP1,1,1*%
%TO.N,Net-(U1-V+)*%
X127500000Y-103500000D03*
%TD*%
D12*
%TO.P,C2,1*%
%TO.N,Net-(U1-V-)*%
X126950000Y-144000000D03*
%TO.P,C2,2*%
%TO.N,GNDPWR*%
X128500000Y-144000000D03*
%TD*%
D13*
%TO.P,U1,1,NULL*%
%TO.N,GNDPWR*%
X123050000Y-120190000D03*
%TO.P,U1,2,-*%
%TO.N,Net-(U1--)*%
X123050000Y-121460000D03*
%TO.P,U1,3,+*%
%TO.N,Net-(U1-+)*%
X123050000Y-122730000D03*
%TO.P,U1,4,V-*%
%TO.N,Net-(U1-V-)*%
X123050000Y-124000000D03*
%TO.P,U1,5,NULL*%
%TO.N,GNDPWR*%
X128000000Y-124000000D03*
%TO.P,U1,6*%
%TO.N,Net-(R2-Pad2)*%
X128000000Y-122730000D03*
%TO.P,U1,7,V+*%
%TO.N,Net-(U1-V+)*%
X128000000Y-121460000D03*
%TO.P,U1,8,NC*%
%TO.N,unconnected-(U1-NC-Pad8)*%
X128000000Y-120190000D03*
D14*
%TO.P,U1,9*%
%TO.N,N/C*%
X125525000Y-122095000D03*
%TD*%
D11*
%TO.P,TP5,1,1*%
%TO.N,Net-(R2-Pad2)*%
X138000000Y-120000000D03*
%TD*%
D15*
%TO.P,R2,1*%
%TO.N,Net-(U1-+)*%
X118500000Y-127500000D03*
%TO.P,R2,2*%
%TO.N,Net-(R2-Pad2)*%
X120150000Y-127500000D03*
%TD*%
D11*
%TO.P,TP2,1,1*%
%TO.N,Net-(U1-V-)*%
X118500000Y-145500000D03*
%TD*%
%TO.P,TP4,1,1*%
%TO.N,Net-(U1--)*%
X110500000Y-116500000D03*
%TD*%
D16*
%TO.P,C1,1*%
%TO.N,Net-(U1-V+)*%
X123275000Y-107000000D03*
%TO.P,C1,2*%
%TO.N,GNDPWR*%
X121725000Y-107000000D03*
%TD*%
D11*
%TO.P,TP3,1,1*%
%TO.N,Net-(U1-+)*%
X110500000Y-127500000D03*
%TD*%
D17*
%TO.N,GNDPWR*%
X128500000Y-118000000D03*
X128500000Y-126500000D03*
%TO.N,Net-(R2-Pad2)*%
X129770000Y-122730000D03*
X122200003Y-127000000D03*
%TD*%
D18*
%TO.N,GNDPWR*%
X128500000Y-124500000D02*
X128000000Y-124000000D01*
X121725000Y-118865000D02*
X122430000Y-119570000D01*
X128000000Y-117500000D02*
X128500000Y-118000000D01*
X128500000Y-144000000D02*
X128500000Y-124500000D01*
X116500000Y-119500000D02*
X122360000Y-119500000D01*
X122430000Y-119570000D02*
X123050000Y-120190000D01*
X122360000Y-119500000D02*
X122430000Y-119570000D01*
X121725000Y-117500000D02*
X128000000Y-117500000D01*
X121725000Y-107000000D02*
X121725000Y-117500000D01*
X121725000Y-117500000D02*
X121725000Y-118865000D01*
%TO.N,Net-(U1--)*%
X116000000Y-121150000D02*
X116500000Y-121150000D01*
X116000000Y-121150000D02*
X116310000Y-121460000D01*
X116310000Y-121460000D02*
X123050000Y-121460000D01*
X110500000Y-116500000D02*
X115150000Y-121150000D01*
X115150000Y-121150000D02*
X116000000Y-121150000D01*
%TO.N,Net-(R2-Pad2)*%
X131500000Y-122730000D02*
X135270000Y-122730000D01*
X135270000Y-122730000D02*
X138000000Y-120000000D01*
X121000000Y-127500000D02*
X121500000Y-127000000D01*
X121500000Y-127000000D02*
X122200003Y-127000000D01*
X128000000Y-122730000D02*
X131500000Y-122730000D01*
X120150000Y-127500000D02*
X121000000Y-127500000D01*
%TO.N,Net-(U1-+)*%
X118500000Y-126305001D02*
X122075001Y-122730000D01*
X118500000Y-127500000D02*
X118500000Y-126305001D01*
X122075001Y-122730000D02*
X123050000Y-122730000D01*
X118500000Y-127500000D02*
X110500000Y-127500000D01*
%TO.N,Net-(U1-V+)*%
X123275000Y-107000000D02*
X123275000Y-109775000D01*
X123275000Y-107000000D02*
X124000000Y-107000000D01*
X131000000Y-117500000D02*
X131000000Y-119434999D01*
X128974999Y-121460000D02*
X128000000Y-121460000D01*
X131000000Y-119434999D02*
X128974999Y-121460000D01*
X123275000Y-109775000D02*
X131000000Y-117500000D01*
X124000000Y-107000000D02*
X127500000Y-103500000D01*
%TO.N,Net-(U1-V-)*%
X123050000Y-124000000D02*
X123050000Y-140950000D01*
X123050000Y-140950000D02*
X118500000Y-145500000D01*
X126950000Y-144000000D02*
X120000000Y-144000000D01*
X120000000Y-144000000D02*
X118500000Y-145500000D01*
%TD*%
%TA.AperFunction,Conductor*%
%TO.N,GNDPWR*%
G36*
X149442539Y-100520185D02*
G01*
X149488294Y-100572989D01*
X149499500Y-100624500D01*
X149499500Y-149375500D01*
X149479815Y-149442539D01*
X149427011Y-149488294D01*
X149375500Y-149499500D01*
X100624500Y-149499500D01*
X100557461Y-149479815D01*
X100511706Y-149427011D01*
X100500500Y-149375500D01*
X100500500Y-116499994D01*
X108994357Y-116499994D01*
X108994357Y-116500005D01*
X109014890Y-116747812D01*
X109014892Y-116747824D01*
X109075936Y-116988881D01*
X109175826Y-117216606D01*
X109311833Y-117424782D01*
X109311836Y-117424785D01*
X109480256Y-117607738D01*
X109676491Y-117760474D01*
X109895190Y-117878828D01*
X110130386Y-117959571D01*
X110375665Y-118000500D01*
X110624335Y-118000500D01*
X110869608Y-117959572D01*
X110869607Y-117959572D01*
X110869614Y-117959571D01*
X110975607Y-117923182D01*
X111045402Y-117920033D01*
X111103548Y-117952783D01*
X114665139Y-121514374D01*
X114665149Y-121514385D01*
X114669479Y-121518715D01*
X114669480Y-121518716D01*
X114781284Y-121630520D01*
X114868095Y-121680639D01*
X114868097Y-121680641D01*
X114906151Y-121702611D01*
X114918215Y-121709577D01*
X115070943Y-121750500D01*
X115583480Y-121750500D01*
X115650519Y-121770185D01*
X115671161Y-121786819D01*
X115789811Y-121905469D01*
X115789813Y-121905470D01*
X115789815Y-121905472D01*
X115935394Y-121993478D01*
X116097804Y-122044086D01*
X116168384Y-122050500D01*
X116177297Y-122050500D01*
X116209388Y-122054724D01*
X116230942Y-122060500D01*
X116230943Y-122060500D01*
X121559093Y-122060500D01*
X121626132Y-122080185D01*
X121671887Y-122132989D01*
X121681831Y-122202147D01*
X121665825Y-122247621D01*
X121623253Y-122319605D01*
X121622798Y-122320658D01*
X121621511Y-122322551D01*
X121619285Y-122326316D01*
X121619048Y-122326176D01*
X121596702Y-122359062D01*
X121594501Y-122361264D01*
X121594481Y-122361284D01*
X118019481Y-125936283D01*
X118019480Y-125936285D01*
X117982983Y-125999500D01*
X117940423Y-126073216D01*
X117899499Y-126225944D01*
X117899499Y-126225946D01*
X117899499Y-126394047D01*
X117899500Y-126394060D01*
X117899500Y-126583480D01*
X117879815Y-126650519D01*
X117863181Y-126671161D01*
X117744531Y-126789810D01*
X117744530Y-126789811D01*
X117714402Y-126839650D01*
X117662874Y-126886838D01*
X117608285Y-126899500D01*
X111956116Y-126899500D01*
X111889077Y-126879815D01*
X111843322Y-126827011D01*
X111842560Y-126825311D01*
X111824172Y-126783391D01*
X111688166Y-126575217D01*
X111647381Y-126530913D01*
X111519744Y-126392262D01*
X111323509Y-126239526D01*
X111323507Y-126239525D01*
X111323506Y-126239524D01*
X111104811Y-126121172D01*
X111104802Y-126121169D01*
X110869616Y-126040429D01*
X110624335Y-125999500D01*
X110375665Y-125999500D01*
X110130383Y-126040429D01*
X109895197Y-126121169D01*
X109895188Y-126121172D01*
X109676493Y-126239524D01*
X109480257Y-126392261D01*
X109311833Y-126575217D01*
X109175826Y-126783393D01*
X109075936Y-127011118D01*
X109014892Y-127252175D01*
X109014890Y-127252187D01*
X108994357Y-127499994D01*
X108994357Y-127500005D01*
X109014890Y-127747812D01*
X109014892Y-127747824D01*
X109075936Y-127988881D01*
X109175825Y-128216604D01*
X109311833Y-128424782D01*
X109311836Y-128424785D01*
X109480256Y-128607738D01*
X109676491Y-128760474D01*
X109895190Y-128878828D01*
X110130386Y-128959571D01*
X110375665Y-129000500D01*
X110624335Y-129000500D01*
X110869614Y-128959571D01*
X111104810Y-128878828D01*
X111323509Y-128760474D01*
X111519744Y-128607738D01*
X111688164Y-128424785D01*
X111824173Y-128216607D01*
X111842560Y-128174689D01*
X111887517Y-128121204D01*
X111954253Y-128100514D01*
X111956116Y-128100500D01*
X117608285Y-128100500D01*
X117675324Y-128120185D01*
X117714402Y-128160350D01*
X117744530Y-128210188D01*
X117864811Y-128330469D01*
X117864813Y-128330470D01*
X117864815Y-128330472D01*
X118010394Y-128418478D01*
X118172804Y-128469086D01*
X118243384Y-128475500D01*
X118243387Y-128475500D01*
X118756613Y-128475500D01*
X118756616Y-128475500D01*
X118827196Y-128469086D01*
X118989606Y-128418478D01*
X119135185Y-128330472D01*
X119135189Y-128330468D01*
X119237319Y-128228339D01*
X119298642Y-128194854D01*
X119368334Y-128199838D01*
X119412681Y-128228339D01*
X119514811Y-128330469D01*
X119514813Y-128330470D01*
X119514815Y-128330472D01*
X119660394Y-128418478D01*
X119822804Y-128469086D01*
X119893384Y-128475500D01*
X119893387Y-128475500D01*
X120406613Y-128475500D01*
X120406616Y-128475500D01*
X120477196Y-128469086D01*
X120639606Y-128418478D01*
X120785185Y-128330472D01*
X120905472Y-128210185D01*
X120935599Y-128160350D01*
X120987127Y-128113163D01*
X121041715Y-128100501D01*
X121079054Y-128100501D01*
X121079057Y-128100501D01*
X121231785Y-128059577D01*
X121281904Y-128030639D01*
X121368716Y-127980520D01*
X121480520Y-127868716D01*
X121480521Y-127868714D01*
X121641132Y-127708102D01*
X121702453Y-127674619D01*
X121772145Y-127679603D01*
X121794784Y-127690792D01*
X121850478Y-127725788D01*
X122020748Y-127785368D01*
X122020753Y-127785369D01*
X122199999Y-127805565D01*
X122200003Y-127805565D01*
X122200005Y-127805565D01*
X122243559Y-127800657D01*
X122311617Y-127792989D01*
X122380438Y-127805043D01*
X122431817Y-127852392D01*
X122449500Y-127916209D01*
X122449500Y-140649902D01*
X122429815Y-140716941D01*
X122413181Y-140737583D01*
X119519478Y-143631286D01*
X119103548Y-144047215D01*
X119042225Y-144080700D01*
X118975604Y-144076815D01*
X118869616Y-144040429D01*
X118624335Y-143999500D01*
X118375665Y-143999500D01*
X118130383Y-144040429D01*
X117895197Y-144121169D01*
X117895188Y-144121172D01*
X117676493Y-144239524D01*
X117480257Y-144392261D01*
X117311833Y-144575217D01*
X117175826Y-144783393D01*
X117075936Y-145011118D01*
X117014892Y-145252175D01*
X117014890Y-145252187D01*
X116994357Y-145499994D01*
X116994357Y-145500005D01*
X117014890Y-145747812D01*
X117014892Y-145747824D01*
X117075936Y-145988881D01*
X117175826Y-146216606D01*
X117311833Y-146424782D01*
X117311836Y-146424785D01*
X117480256Y-146607738D01*
X117676491Y-146760474D01*
X117895190Y-146878828D01*
X118130386Y-146959571D01*
X118375665Y-147000500D01*
X118624335Y-147000500D01*
X118869614Y-146959571D01*
X119104810Y-146878828D01*
X119323509Y-146760474D01*
X119519744Y-146607738D01*
X119688164Y-146424785D01*
X119824173Y-146216607D01*
X119924063Y-145988881D01*
X119985108Y-145747821D01*
X120005643Y-145500000D01*
X119985108Y-145252179D01*
X119924063Y-145011119D01*
X119924062Y-145011118D01*
X119923992Y-145010839D01*
X119926616Y-144941018D01*
X119956512Y-144892721D01*
X120212417Y-144636816D01*
X120273739Y-144603334D01*
X120300097Y-144600500D01*
X126019575Y-144600500D01*
X126086614Y-144620185D01*
X126125113Y-144659402D01*
X126152031Y-144703043D01*
X126271955Y-144822967D01*
X126271959Y-144822970D01*
X126416294Y-144911998D01*
X126416297Y-144911999D01*
X126416303Y-144912003D01*
X126577292Y-144965349D01*
X126676655Y-144975500D01*
X127223344Y-144975499D01*
X127223352Y-144975498D01*
X127223355Y-144975498D01*
X127277760Y-144969940D01*
X127322708Y-144965349D01*
X127483697Y-144912003D01*
X127628044Y-144822968D01*
X127637668Y-144813343D01*
X127698987Y-144779856D01*
X127768679Y-144784835D01*
X127813034Y-144813339D01*
X127822267Y-144822572D01*
X127822271Y-144822575D01*
X127966507Y-144911542D01*
X127966518Y-144911547D01*
X128127393Y-144964855D01*
X128226683Y-144974999D01*
X128750000Y-144974999D01*
X128773308Y-144974999D01*
X128773322Y-144974998D01*
X128872607Y-144964855D01*
X129033481Y-144911547D01*
X129033492Y-144911542D01*
X129177728Y-144822575D01*
X129177732Y-144822572D01*
X129297572Y-144702732D01*
X129297575Y-144702728D01*
X129386542Y-144558492D01*
X129386547Y-144558481D01*
X129439855Y-144397606D01*
X129449999Y-144298322D01*
X129450000Y-144298309D01*
X129450000Y-144250000D01*
X128750000Y-144250000D01*
X128750000Y-144974999D01*
X128226683Y-144974999D01*
X128250000Y-144974998D01*
X128250000Y-143750000D01*
X128750000Y-143750000D01*
X129449999Y-143750000D01*
X129449999Y-143701692D01*
X129449998Y-143701677D01*
X129439855Y-143602392D01*
X129386547Y-143441518D01*
X129386542Y-143441507D01*
X129297575Y-143297271D01*
X129297572Y-143297267D01*
X129177732Y-143177427D01*
X129177728Y-143177424D01*
X129033492Y-143088457D01*
X129033481Y-143088452D01*
X128872606Y-143035144D01*
X128773322Y-143025000D01*
X128750000Y-143025000D01*
X128750000Y-143750000D01*
X128250000Y-143750000D01*
X128250000Y-143024999D01*
X128226693Y-143025000D01*
X128226674Y-143025001D01*
X128127392Y-143035144D01*
X127966518Y-143088452D01*
X127966507Y-143088457D01*
X127822271Y-143177424D01*
X127822265Y-143177428D01*
X127813031Y-143186663D01*
X127751707Y-143220146D01*
X127682015Y-143215159D01*
X127637672Y-143186660D01*
X127628044Y-143177032D01*
X127628040Y-143177029D01*
X127483705Y-143088001D01*
X127483699Y-143087998D01*
X127483697Y-143087997D01*
X127483694Y-143087996D01*
X127322709Y-143034651D01*
X127223346Y-143024500D01*
X126676662Y-143024500D01*
X126676644Y-143024501D01*
X126577292Y-143034650D01*
X126577289Y-143034651D01*
X126416305Y-143087996D01*
X126416294Y-143088001D01*
X126271959Y-143177029D01*
X126271955Y-143177032D01*
X126152031Y-143296956D01*
X126125113Y-143340598D01*
X126073165Y-143387322D01*
X126019575Y-143399500D01*
X121749098Y-143399500D01*
X121682059Y-143379815D01*
X121636304Y-143327011D01*
X121626360Y-143257853D01*
X121655385Y-143194297D01*
X121661417Y-143187819D01*
X121824736Y-143024500D01*
X123530520Y-141318716D01*
X123609577Y-141181784D01*
X123650501Y-141029057D01*
X123650501Y-140870942D01*
X123650501Y-140863347D01*
X123650500Y-140863329D01*
X123650500Y-124924500D01*
X123670185Y-124857461D01*
X123722989Y-124811706D01*
X123774500Y-124800500D01*
X123940686Y-124800500D01*
X123940694Y-124800500D01*
X123977569Y-124797598D01*
X123977571Y-124797597D01*
X123977573Y-124797597D01*
X124019191Y-124785505D01*
X124135398Y-124751744D01*
X124276865Y-124668081D01*
X124393081Y-124551865D01*
X124476744Y-124410398D01*
X124522598Y-124252569D01*
X124525500Y-124215694D01*
X124525500Y-124215672D01*
X124525541Y-124214643D01*
X124525595Y-124214481D01*
X124525691Y-124213267D01*
X124525996Y-124213291D01*
X124547836Y-124148426D01*
X124602391Y-124104774D01*
X124649446Y-124095499D01*
X126401056Y-124095499D01*
X126468095Y-124115184D01*
X126513850Y-124167988D01*
X126524624Y-124213229D01*
X126524809Y-124213215D01*
X126524901Y-124214393D01*
X126524961Y-124214642D01*
X126525000Y-124215647D01*
X126527899Y-124252489D01*
X126527900Y-124252495D01*
X126573716Y-124410193D01*
X126573717Y-124410196D01*
X126657314Y-124551552D01*
X126657321Y-124551561D01*
X126773438Y-124667678D01*
X126773447Y-124667685D01*
X126914803Y-124751282D01*
X126914806Y-124751283D01*
X127072504Y-124797099D01*
X127072510Y-124797100D01*
X127109350Y-124799999D01*
X127109366Y-124800000D01*
X127750000Y-124800000D01*
X128250000Y-124800000D01*
X128890634Y-124800000D01*
X128890649Y-124799999D01*
X128927489Y-124797100D01*
X128927495Y-124797099D01*
X129085193Y-124751283D01*
X129085196Y-124751282D01*
X129226552Y-124667685D01*
X129226561Y-124667678D01*
X129342678Y-124551561D01*
X129342685Y-124551552D01*
X129426281Y-124410198D01*
X129472100Y-124252486D01*
X129472295Y-124250001D01*
X129472295Y-124250000D01*
X128250000Y-124250000D01*
X128250000Y-124800000D01*
X127750000Y-124800000D01*
X127750000Y-123874000D01*
X127769685Y-123806961D01*
X127822489Y-123761206D01*
X127874000Y-123750000D01*
X129472295Y-123750000D01*
X129472295Y-123749998D01*
X129472100Y-123747511D01*
X129472099Y-123747505D01*
X129450238Y-123672260D01*
X129450437Y-123602391D01*
X129488379Y-123543721D01*
X129552017Y-123514877D01*
X129583640Y-123516229D01*
X129583825Y-123514589D01*
X129769996Y-123535565D01*
X129770000Y-123535565D01*
X129770004Y-123535565D01*
X129949249Y-123515369D01*
X129949252Y-123515368D01*
X129949255Y-123515368D01*
X130119522Y-123455789D01*
X130272262Y-123359816D01*
X130272267Y-123359810D01*
X130275097Y-123357555D01*
X130277275Y-123356665D01*
X130278158Y-123356111D01*
X130278255Y-123356265D01*
X130339783Y-123331145D01*
X130352412Y-123330500D01*
X131420943Y-123330500D01*
X135183331Y-123330500D01*
X135183347Y-123330501D01*
X135190943Y-123330501D01*
X135349054Y-123330501D01*
X135349057Y-123330501D01*
X135501785Y-123289577D01*
X135551904Y-123260639D01*
X135638716Y-123210520D01*
X135750520Y-123098716D01*
X135750520Y-123098714D01*
X135760728Y-123088507D01*
X135760730Y-123088504D01*
X137396452Y-121452781D01*
X137457773Y-121419298D01*
X137524392Y-121423182D01*
X137596350Y-121447886D01*
X137630385Y-121459571D01*
X137875665Y-121500500D01*
X138124335Y-121500500D01*
X138369614Y-121459571D01*
X138604810Y-121378828D01*
X138823509Y-121260474D01*
X139019744Y-121107738D01*
X139188164Y-120924785D01*
X139324173Y-120716607D01*
X139424063Y-120488881D01*
X139485108Y-120247821D01*
X139494467Y-120134877D01*
X139505643Y-120000005D01*
X139505643Y-119999994D01*
X139485109Y-119752187D01*
X139485107Y-119752175D01*
X139424063Y-119511118D01*
X139324173Y-119283393D01*
X139188166Y-119075217D01*
X139128684Y-119010603D01*
X139019744Y-118892262D01*
X138823509Y-118739526D01*
X138823507Y-118739525D01*
X138823506Y-118739524D01*
X138604811Y-118621172D01*
X138604802Y-118621169D01*
X138369616Y-118540429D01*
X138124335Y-118499500D01*
X137875665Y-118499500D01*
X137630383Y-118540429D01*
X137395197Y-118621169D01*
X137395188Y-118621172D01*
X137176493Y-118739524D01*
X136980257Y-118892261D01*
X136811833Y-119075217D01*
X136675826Y-119283393D01*
X136575936Y-119511118D01*
X136514892Y-119752175D01*
X136514890Y-119752187D01*
X136494357Y-119999994D01*
X136494357Y-120000005D01*
X136514890Y-120247812D01*
X136514892Y-120247824D01*
X136576007Y-120489160D01*
X136573382Y-120558980D01*
X136543482Y-120607281D01*
X135057584Y-122093181D01*
X134996261Y-122126666D01*
X134969903Y-122129500D01*
X130352412Y-122129500D01*
X130285373Y-122109815D01*
X130275097Y-122102445D01*
X130272263Y-122100185D01*
X130272262Y-122100184D01*
X130209104Y-122060499D01*
X130119523Y-122004211D01*
X129949254Y-121944631D01*
X129949249Y-121944630D01*
X129770004Y-121924435D01*
X129769995Y-121924435D01*
X129659852Y-121936844D01*
X129591031Y-121924789D01*
X129539652Y-121877439D01*
X129522028Y-121809829D01*
X129543755Y-121743423D01*
X129558284Y-121725948D01*
X131358506Y-119925727D01*
X131358511Y-119925723D01*
X131368714Y-119915519D01*
X131368716Y-119915519D01*
X131480520Y-119803715D01*
X131535685Y-119708165D01*
X131559577Y-119666784D01*
X131600501Y-119514056D01*
X131600501Y-119355942D01*
X131600501Y-119348347D01*
X131600500Y-119348329D01*
X131600500Y-117589060D01*
X131600501Y-117589047D01*
X131600501Y-117420944D01*
X131559576Y-117268214D01*
X131559573Y-117268209D01*
X131480524Y-117131290D01*
X131480518Y-117131282D01*
X123911819Y-109562583D01*
X123878334Y-109501260D01*
X123875500Y-109474902D01*
X123875500Y-107940004D01*
X123895185Y-107872965D01*
X123934403Y-107834465D01*
X123953044Y-107822968D01*
X124072968Y-107703044D01*
X124121674Y-107624077D01*
X124173620Y-107577354D01*
X124195107Y-107569404D01*
X124231785Y-107559577D01*
X124281904Y-107530639D01*
X124368716Y-107480520D01*
X124480520Y-107368716D01*
X124480520Y-107368714D01*
X124490728Y-107358507D01*
X124490730Y-107358504D01*
X126896452Y-104952781D01*
X126957773Y-104919298D01*
X127024392Y-104923182D01*
X127096350Y-104947886D01*
X127130385Y-104959571D01*
X127375665Y-105000500D01*
X127624335Y-105000500D01*
X127869614Y-104959571D01*
X128104810Y-104878828D01*
X128323509Y-104760474D01*
X128519744Y-104607738D01*
X128688164Y-104424785D01*
X128824173Y-104216607D01*
X128924063Y-103988881D01*
X128985108Y-103747821D01*
X129005643Y-103500000D01*
X128985108Y-103252179D01*
X128924063Y-103011119D01*
X128824173Y-102783393D01*
X128688166Y-102575217D01*
X128666557Y-102551744D01*
X128519744Y-102392262D01*
X128323509Y-102239526D01*
X128323507Y-102239525D01*
X128323506Y-102239524D01*
X128104811Y-102121172D01*
X128104802Y-102121169D01*
X127869616Y-102040429D01*
X127624335Y-101999500D01*
X127375665Y-101999500D01*
X127130383Y-102040429D01*
X126895197Y-102121169D01*
X126895188Y-102121172D01*
X126676493Y-102239524D01*
X126480257Y-102392261D01*
X126311833Y-102575217D01*
X126175826Y-102783393D01*
X126075936Y-103011118D01*
X126014892Y-103252175D01*
X126014890Y-103252187D01*
X125994357Y-103499994D01*
X125994357Y-103500005D01*
X126014890Y-103747812D01*
X126014892Y-103747824D01*
X126076007Y-103989160D01*
X126073382Y-104058980D01*
X126043482Y-104107281D01*
X124035169Y-106115594D01*
X123973846Y-106149079D01*
X123904154Y-106144095D01*
X123882392Y-106133452D01*
X123808703Y-106088000D01*
X123808698Y-106087998D01*
X123808697Y-106087997D01*
X123808694Y-106087996D01*
X123647709Y-106034651D01*
X123548346Y-106024500D01*
X123001662Y-106024500D01*
X123001644Y-106024501D01*
X122902292Y-106034650D01*
X122902289Y-106034651D01*
X122741305Y-106087996D01*
X122741294Y-106088001D01*
X122596959Y-106177029D01*
X122596953Y-106177033D01*
X122587324Y-106186663D01*
X122526000Y-106220146D01*
X122456308Y-106215159D01*
X122411965Y-106186660D01*
X122402732Y-106177427D01*
X122402728Y-106177424D01*
X122258492Y-106088457D01*
X122258481Y-106088452D01*
X122097606Y-106035144D01*
X121998322Y-106025000D01*
X121975000Y-106025000D01*
X121975000Y-107974999D01*
X121998308Y-107974999D01*
X121998322Y-107974998D01*
X122097607Y-107964855D01*
X122258481Y-107911547D01*
X122258492Y-107911542D01*
X122402731Y-107822573D01*
X122411959Y-107813345D01*
X122473279Y-107779856D01*
X122542971Y-107784835D01*
X122587327Y-107813339D01*
X122596956Y-107822968D01*
X122615596Y-107834465D01*
X122662321Y-107886412D01*
X122674500Y-107940004D01*
X122674500Y-109688330D01*
X122674499Y-109688348D01*
X122674499Y-109854054D01*
X122674498Y-109854054D01*
X122715423Y-110006785D01*
X122744358Y-110056900D01*
X122744359Y-110056904D01*
X122744360Y-110056904D01*
X122794479Y-110143714D01*
X122794481Y-110143717D01*
X122913349Y-110262585D01*
X122913355Y-110262590D01*
X130363181Y-117712416D01*
X130396666Y-117773739D01*
X130399500Y-117800097D01*
X130399500Y-119134902D01*
X130379815Y-119201941D01*
X130363181Y-119222583D01*
X129660420Y-119925343D01*
X129599097Y-119958828D01*
X129529405Y-119953844D01*
X129473472Y-119911972D01*
X129453663Y-119872259D01*
X129426744Y-119779602D01*
X129343081Y-119638135D01*
X129343079Y-119638133D01*
X129343076Y-119638129D01*
X129226870Y-119521923D01*
X129226862Y-119521917D01*
X129148681Y-119475681D01*
X129085398Y-119438256D01*
X129085397Y-119438255D01*
X129085396Y-119438255D01*
X129085393Y-119438254D01*
X128927573Y-119392402D01*
X128927567Y-119392401D01*
X128890701Y-119389500D01*
X128890694Y-119389500D01*
X127109306Y-119389500D01*
X127109298Y-119389500D01*
X127072432Y-119392401D01*
X127072426Y-119392402D01*
X126914606Y-119438254D01*
X126914603Y-119438255D01*
X126773137Y-119521917D01*
X126773129Y-119521923D01*
X126656923Y-119638129D01*
X126656917Y-119638137D01*
X126573255Y-119779603D01*
X126573254Y-119779606D01*
X126527402Y-119937426D01*
X126527401Y-119937432D01*
X126524500Y-119974300D01*
X126524459Y-119975357D01*
X126524404Y-119975518D01*
X126524309Y-119976733D01*
X126524003Y-119976708D01*
X126502164Y-120041574D01*
X126447608Y-120085225D01*
X126400554Y-120094500D01*
X124648944Y-120094500D01*
X124581905Y-120074815D01*
X124536150Y-120022011D01*
X124525375Y-119976770D01*
X124525191Y-119976785D01*
X124525098Y-119975606D01*
X124525039Y-119975358D01*
X124524999Y-119974352D01*
X124522100Y-119937510D01*
X124522099Y-119937504D01*
X124476283Y-119779806D01*
X124476282Y-119779803D01*
X124392685Y-119638447D01*
X124392678Y-119638438D01*
X124276561Y-119522321D01*
X124276552Y-119522314D01*
X124135196Y-119438717D01*
X124135193Y-119438716D01*
X123977495Y-119392900D01*
X123977489Y-119392899D01*
X123940649Y-119390000D01*
X123300000Y-119390000D01*
X123300000Y-120316000D01*
X123280315Y-120383039D01*
X123227511Y-120428794D01*
X123176000Y-120440000D01*
X121577705Y-120440000D01*
X121577704Y-120440001D01*
X121577899Y-120442486D01*
X121623718Y-120600198D01*
X121666406Y-120672379D01*
X121683589Y-120740103D01*
X121661429Y-120806365D01*
X121606963Y-120850129D01*
X121559674Y-120859500D01*
X117571762Y-120859500D01*
X117504723Y-120839815D01*
X117458968Y-120787011D01*
X117453379Y-120772399D01*
X117418478Y-120660394D01*
X117330472Y-120514815D01*
X117330470Y-120514813D01*
X117330469Y-120514811D01*
X117227984Y-120412326D01*
X117194499Y-120351003D01*
X117199483Y-120281311D01*
X117227985Y-120236963D01*
X117330071Y-120134878D01*
X117330072Y-120134877D01*
X117418019Y-119989395D01*
X117433412Y-119939998D01*
X121577704Y-119939998D01*
X121577705Y-119940000D01*
X122800000Y-119940000D01*
X122800000Y-119390000D01*
X122159350Y-119390000D01*
X122122510Y-119392899D01*
X122122504Y-119392900D01*
X121964806Y-119438716D01*
X121964803Y-119438717D01*
X121823447Y-119522314D01*
X121823438Y-119522321D01*
X121707321Y-119638438D01*
X121707314Y-119638447D01*
X121623718Y-119779801D01*
X121577899Y-119937513D01*
X121577704Y-119939998D01*
X117433412Y-119939998D01*
X117468590Y-119827106D01*
X117475000Y-119756572D01*
X117475000Y-119750000D01*
X115525001Y-119750000D01*
X115525001Y-119756582D01*
X115531408Y-119827102D01*
X115531409Y-119827107D01*
X115581981Y-119989396D01*
X115669927Y-120134877D01*
X115772015Y-120236965D01*
X115805500Y-120298288D01*
X115800516Y-120367980D01*
X115772015Y-120412327D01*
X115671161Y-120513181D01*
X115609838Y-120546666D01*
X115583480Y-120549500D01*
X115450097Y-120549500D01*
X115383058Y-120529815D01*
X115362416Y-120513181D01*
X114092662Y-119243427D01*
X115525000Y-119243427D01*
X115525000Y-119250000D01*
X116250000Y-119250000D01*
X116750000Y-119250000D01*
X117474999Y-119250000D01*
X117474999Y-119243417D01*
X117468591Y-119172897D01*
X117468590Y-119172892D01*
X117418018Y-119010603D01*
X117330072Y-118865122D01*
X117209877Y-118744927D01*
X117064395Y-118656980D01*
X117064396Y-118656980D01*
X116902105Y-118606409D01*
X116902106Y-118606409D01*
X116831572Y-118600000D01*
X116750000Y-118600000D01*
X116750000Y-119250000D01*
X116250000Y-119250000D01*
X116250000Y-118600000D01*
X116249999Y-118599999D01*
X116168417Y-118600000D01*
X116097897Y-118606408D01*
X116097892Y-118606409D01*
X115935603Y-118656981D01*
X115790122Y-118744927D01*
X115669927Y-118865122D01*
X115581980Y-119010604D01*
X115531409Y-119172893D01*
X115525000Y-119243427D01*
X114092662Y-119243427D01*
X111956516Y-117107281D01*
X111923031Y-117045958D01*
X111923992Y-116989159D01*
X111924061Y-116988884D01*
X111924063Y-116988881D01*
X111985108Y-116747821D01*
X112005643Y-116500000D01*
X111985108Y-116252179D01*
X111924063Y-116011119D01*
X111824173Y-115783393D01*
X111688166Y-115575217D01*
X111666557Y-115551744D01*
X111519744Y-115392262D01*
X111323509Y-115239526D01*
X111323507Y-115239525D01*
X111323506Y-115239524D01*
X111104811Y-115121172D01*
X111104802Y-115121169D01*
X110869616Y-115040429D01*
X110624335Y-114999500D01*
X110375665Y-114999500D01*
X110130383Y-115040429D01*
X109895197Y-115121169D01*
X109895188Y-115121172D01*
X109676493Y-115239524D01*
X109480257Y-115392261D01*
X109311833Y-115575217D01*
X109175826Y-115783393D01*
X109075936Y-116011118D01*
X109014892Y-116252175D01*
X109014890Y-116252187D01*
X108994357Y-116499994D01*
X100500500Y-116499994D01*
X100500500Y-107298322D01*
X120775001Y-107298322D01*
X120785144Y-107397607D01*
X120838452Y-107558481D01*
X120838457Y-107558492D01*
X120927424Y-107702728D01*
X120927427Y-107702732D01*
X121047267Y-107822572D01*
X121047271Y-107822575D01*
X121191507Y-107911542D01*
X121191518Y-107911547D01*
X121352393Y-107964855D01*
X121451683Y-107974999D01*
X121475000Y-107974998D01*
X121475000Y-107250000D01*
X120775001Y-107250000D01*
X120775001Y-107298322D01*
X100500500Y-107298322D01*
X100500500Y-106701677D01*
X120775000Y-106701677D01*
X120775000Y-106750000D01*
X121475000Y-106750000D01*
X121475000Y-106024999D01*
X121451693Y-106025000D01*
X121451674Y-106025001D01*
X121352392Y-106035144D01*
X121191518Y-106088452D01*
X121191507Y-106088457D01*
X121047271Y-106177424D01*
X121047267Y-106177427D01*
X120927427Y-106297267D01*
X120927424Y-106297271D01*
X120838457Y-106441507D01*
X120838452Y-106441518D01*
X120785144Y-106602393D01*
X120775000Y-106701677D01*
X100500500Y-106701677D01*
X100500500Y-100624500D01*
X100520185Y-100557461D01*
X100572989Y-100511706D01*
X100624500Y-100500500D01*
X149375500Y-100500500D01*
X149442539Y-100520185D01*
G37*
%TD.AperFunction*%
%TD*%
M02*
